<?xml version="1.0" encoding="UTF-8" standalone="no"?>
<!DOCTYPE svg PUBLIC "-//W3C//DTD SVG 1.1//EN" "http://www.w3.org/Graphics/SVG/1.1/DTD/svg11.dtd">
<svg width="100%" height="100%" viewBox="0 0 32 32" version="1.1" xmlns="http://www.w3.org/2000/svg" xmlns:xlink="http://www.w3.org/1999/xlink" xml:space="preserve" style="fill-rule:evenodd;clip-rule:evenodd;stroke-linejoin:round;stroke-miterlimit:1.41421;">
    <g id="Picture">
        <g>
            <path d="M25.015,6.372L6.985,6.372C6.581,6.372 6.25,6.704 6.25,7.108L6.25,24.892C6.25,25.296 6.581,25.628 6.985,25.628L25.015,25.628C25.419,25.628 25.75,25.296 25.75,24.892L25.75,7.108C25.75,6.704 25.419,6.372 25.015,6.372ZM23.674,20.943L8.111,20.943L8.111,8.357L23.674,8.357L23.674,20.943Z" style="fill:#fff;fill-rule:nonzero;"/>
            <circle cx="11.11" cy="11.569" r="2.161" style="fill:#fff;"/>
            <path d="M18.838,12.668C18.458,11.988 17.807,11.971 17.393,12.633L15.358,15.885C14.943,16.547 14.119,16.757 13.525,16.352C12.93,15.947 12.031,16.102 11.526,16.697L9.498,19.087C8.993,19.683 9.219,20.168 9.999,20.168L21.612,20.168C22.392,20.168 22.719,19.612 22.339,18.93L18.838,12.668Z" style="fill:#fff;fill-rule:nonzero;"/>
        </g>
    </g>
</svg>
